<svg width="65" height="65" viewBox="0 0 65 65" fill="none" xmlns="http://www.w3.org/2000/svg">
<rect x="4.61279" y="4.84946" width="55.2258" height="55.2258" rx="27.6129" fill="#D1FADF"/>
<rect x="4.61279" y="4.84946" width="55.2258" height="55.2258" rx="27.6129" stroke="#ECFDF3" stroke-width="9.2043"/>
<path fill-rule="evenodd" clip-rule="evenodd" d="M26.761 25.5591C26.761 22.5409 29.2078 20.0941 32.226 20.0941C35.2443 20.0941 37.6911 22.5409 37.6911 25.5591C37.6911 28.5774 35.2443 31.0242 32.226 31.0242C29.2078 31.0242 26.761 28.5774 26.761 25.5591ZM32.226 21.8199C30.1609 21.8199 28.4868 23.494 28.4868 25.5591C28.4868 27.6243 30.1609 29.2984 32.226 29.2984C34.2912 29.2984 35.9653 27.6243 35.9653 25.5591C35.9653 23.494 34.2912 21.8199 32.226 21.8199Z" fill="#039855"/>
<path d="M39.1293 34.6676C39.6058 34.6676 39.9922 35.0539 39.9922 35.5305V36.2016H40.6631C41.1397 36.2016 41.526 36.5879 41.526 37.0645C41.526 37.5411 41.1397 37.9274 40.6631 37.9274H39.9922V38.5986C39.9922 39.0751 39.6058 39.4615 39.1293 39.4615C38.6527 39.4615 38.2664 39.0751 38.2664 38.5986V37.9274H37.595C37.1185 37.9274 36.7321 37.5411 36.7321 37.0645C36.7321 36.5879 37.1185 36.2016 37.595 36.2016H38.2664V35.5305C38.2664 35.0539 38.6527 34.6676 39.1293 34.6676Z" fill="#039855"/>
<path fill-rule="evenodd" clip-rule="evenodd" d="M35.4184 33.0525C34.4143 32.8559 33.3403 32.75 32.2261 32.75C29.5642 32.75 27.1118 33.355 25.2946 34.3772C23.5044 35.3842 22.1588 36.9104 22.1588 38.7903L22.1588 38.9076C22.1575 40.2444 22.1558 41.9221 23.6274 43.1204C24.3516 43.7102 25.3648 44.1296 26.7336 44.4066C28.1063 44.6845 29.8953 44.8306 32.2261 44.8306C35.5259 44.8306 37.76 44.5385 39.2669 43.9775C40.6232 43.4726 41.4272 42.7328 41.8565 41.8015C43.4929 40.8574 44.5943 39.0896 44.5943 37.0645C44.5943 34.0463 42.1475 31.5995 39.1293 31.5995C37.6967 31.5995 36.393 32.1506 35.4184 33.0525ZM26.1407 35.8814C24.5996 36.7483 23.8847 37.8108 23.8847 38.7903C23.8847 40.295 23.931 41.142 24.7172 41.7822C25.1435 42.1294 25.8561 42.4682 27.076 42.7151C28.2921 42.9613 29.9546 43.1048 32.2261 43.1048C35.1921 43.1048 37.1044 42.8593 38.3364 42.4725C35.6939 42.0884 33.6642 39.8135 33.6642 37.0645C33.6642 36.1811 33.8738 35.3466 34.2461 34.6081C33.5997 34.5218 32.9233 34.4758 32.2261 34.4758C29.8045 34.4758 27.6547 35.0298 26.1407 35.8814ZM35.39 37.0645C35.39 34.9994 37.0641 33.3253 39.1293 33.3253C41.1944 33.3253 42.8685 34.9994 42.8685 37.0645C42.8685 39.1296 41.1944 40.8038 39.1293 40.8038C37.0641 40.8038 35.39 39.1296 35.39 37.0645Z" fill="#039855"/>
</svg>
