<svg width="76" height="84" viewBox="0 0 76 84" fill="none" xmlns="http://www.w3.org/2000/svg">
<circle cx="38.0056" cy="42" r="37.4226" fill="#F0F7FE"/>
<path fill-rule="evenodd" clip-rule="evenodd" d="M38.0053 28.8297C34.7914 28.8297 32.1859 31.4351 32.1859 34.6491C32.1859 37.8631 34.7914 40.4686 38.0053 40.4686C41.2193 40.4686 43.8248 37.8631 43.8248 34.6491C43.8248 31.4351 41.2193 28.8297 38.0053 28.8297ZM34.0236 34.6491C34.0236 32.4501 35.8063 30.6674 38.0053 30.6674C40.2044 30.6674 41.9871 32.4501 41.9871 34.6491C41.9871 36.8482 40.2044 38.6309 38.0053 38.6309C35.8063 38.6309 34.0236 36.8482 34.0236 34.6491Z" fill="#448FED"/>
<path fill-rule="evenodd" clip-rule="evenodd" d="M38.0053 42.3063C35.1709 42.3063 32.5595 42.9506 30.6244 44.0391C28.7181 45.1113 27.2853 46.7365 27.2853 48.7383L27.2852 48.8632C27.2839 50.2866 27.2821 52.0731 28.8491 53.3492C29.6203 53.9772 30.6992 54.4238 32.1568 54.7188C33.6184 55.0147 35.5235 55.1703 38.0053 55.1703C40.4872 55.1703 42.3923 55.0147 43.8539 54.7188C45.3115 54.4238 46.3904 53.9772 47.1616 53.3492C48.7286 52.0731 48.7268 50.2866 48.7254 48.8632L48.7254 48.7383C48.7254 46.7365 47.2926 45.1113 45.3863 44.0391C43.4512 42.9506 40.8398 42.3063 38.0053 42.3063ZM29.123 48.7383C29.123 47.6953 29.8843 46.5639 31.5254 45.6408C33.1376 44.7339 35.4267 44.144 38.0053 44.144C40.5839 44.144 42.8731 44.7339 44.4853 45.6408C46.1264 46.5639 46.8876 47.6953 46.8876 48.7383C46.8876 50.3405 46.8382 51.2425 46.0011 51.9242C45.5472 52.2939 44.7883 52.6547 43.4893 52.9176C42.1944 53.1797 40.4241 53.3326 38.0053 53.3326C35.5866 53.3326 33.8162 53.1797 32.5213 52.9176C31.2224 52.6547 30.4635 52.2939 30.0095 51.9242C29.1724 51.2425 29.123 50.3405 29.123 48.7383Z" fill="#448FED"/>
</svg>
