<svg width="184" height="124" viewBox="0 0 184 124" fill="none" xmlns="http://www.w3.org/2000/svg">
<g filter="url(#filter0_d_4773_7557)">
<rect x="4" width="83" height="86" rx="10" fill="white"/>
<rect x="4.5" y="0.5" width="82" height="85" rx="9.5" stroke="#D6DAE1"/>
</g>
<rect x="38.12" y="95.4676" width="14.7602" height="16.3258" rx="2.46004" fill="white"/>
<rect x="38.12" y="95.4676" width="14.7602" height="16.3258" rx="2.46004" stroke="#30B73D" stroke-width="0.702867"/>
<path d="M46.0802 104.023H44.95L44.7476 104.63H44.115L45.1862 101.611H45.8736L46.9195 104.63H46.2784L46.0802 104.023ZM45.9115 103.504L45.5193 102.324L45.1229 103.504H45.9115Z" fill="#667085"/>
<g clip-path="url(#clip0_4773_7557)">
<path d="M46.7671 119.609C46.8592 119.517 46.8592 119.367 46.7671 119.275C46.675 119.183 46.5258 119.183 46.4337 119.275L45.0287 120.68L44.5667 120.218C44.4747 120.126 44.3254 120.126 44.2333 120.218C44.1413 120.31 44.1413 120.46 44.2333 120.552L44.862 121.18C44.9541 121.272 45.1034 121.272 45.1954 121.18L46.7671 119.609Z" fill="#30B73D"/>
<path fill-rule="evenodd" clip-rule="evenodd" d="M45.5183 116.849H45.4822C44.7566 116.849 44.1879 116.849 43.7442 116.908C43.2901 116.969 42.9318 117.097 42.6505 117.378C42.3692 117.659 42.2418 118.018 42.1807 118.472C42.1211 118.915 42.1211 119.484 42.1211 120.21V120.246C42.1211 120.971 42.1211 121.54 42.1807 121.984C42.2418 122.438 42.3692 122.796 42.6505 123.078C42.9318 123.359 43.2901 123.486 43.7442 123.547C44.1879 123.607 44.7566 123.607 45.4822 123.607H45.5183C46.2439 123.607 46.8125 123.607 47.2562 123.547C47.7103 123.486 48.0687 123.359 48.35 123.078C48.6312 122.796 48.7587 122.438 48.8197 121.984C48.8794 121.54 48.8794 120.971 48.8794 120.246V120.21C48.8794 119.484 48.8794 118.915 48.8197 118.472C48.7587 118.018 48.6312 117.659 48.35 117.378C48.0687 117.097 47.7103 116.969 47.2562 116.908C46.8125 116.849 46.2439 116.849 45.5183 116.849ZM42.9839 117.711C43.163 117.532 43.4052 117.43 43.8071 117.376C44.2157 117.321 44.7527 117.32 45.5002 117.32C46.2478 117.32 46.7848 117.321 47.1934 117.376C47.5952 117.43 47.8375 117.532 48.0166 117.711C48.1956 117.89 48.2984 118.133 48.3524 118.535C48.4074 118.943 48.4079 119.48 48.4079 120.228C48.4079 120.975 48.4074 121.512 48.3524 121.921C48.2984 122.323 48.1956 122.565 48.0166 122.744C47.8375 122.923 47.5952 123.026 47.1934 123.08C46.7848 123.135 46.2478 123.135 45.5002 123.135C44.7527 123.135 44.2157 123.135 43.8071 123.08C43.4052 123.026 43.163 122.923 42.9839 122.744C42.8048 122.565 42.7021 122.323 42.648 121.921C42.5931 121.512 42.5926 120.975 42.5926 120.228C42.5926 119.48 42.5931 118.943 42.648 118.535C42.7021 118.133 42.8048 117.89 42.9839 117.711Z" fill="#30B73D"/>
</g>
<g filter="url(#filter1_d_4773_7557)">
<rect x="97" width="83" height="86" rx="10" fill="white"/>
<rect x="97.5" y="0.5" width="82" height="85" rx="9.5" stroke="#D6DAE1"/>
</g>
<rect x="131.12" y="95.4676" width="14.7602" height="16.3258" rx="2.46004" stroke="#D6DAE1" stroke-width="0.702867"/>
<path d="M137.346 104.63V101.611H138.692C138.998 101.611 139.236 101.685 139.404 101.834C139.587 101.992 139.678 102.183 139.678 102.408C139.678 102.537 139.646 102.65 139.581 102.745C139.52 102.838 139.414 102.932 139.265 103.028C139.597 103.225 139.763 103.469 139.763 103.762C139.763 104.026 139.663 104.242 139.463 104.411C139.289 104.557 139.036 104.63 138.704 104.63H137.346ZM137.966 102.13V102.813H138.645C138.935 102.813 139.08 102.699 139.08 102.471C139.08 102.243 138.935 102.13 138.645 102.13H137.966ZM137.966 103.331V104.112H138.709C139.015 104.112 139.168 103.982 139.168 103.724C139.168 103.462 139.015 103.331 138.709 103.331H137.966Z" fill="#667085"/>
<g clip-path="url(#clip1_4773_7557)">
<path d="M139.767 119.609C139.859 119.517 139.859 119.367 139.767 119.275C139.675 119.183 139.526 119.183 139.434 119.275L138.029 120.68L137.567 120.218C137.475 120.126 137.325 120.126 137.233 120.218C137.141 120.31 137.141 120.46 137.233 120.552L137.862 121.18C137.954 121.272 138.103 121.272 138.195 121.18L139.767 119.609Z" fill="#B6BBC4"/>
<path fill-rule="evenodd" clip-rule="evenodd" d="M138.518 116.849H138.482C137.757 116.849 137.188 116.849 136.744 116.908C136.29 116.969 135.932 117.097 135.65 117.378C135.369 117.659 135.242 118.018 135.181 118.472C135.121 118.915 135.121 119.484 135.121 120.21V120.246C135.121 120.971 135.121 121.54 135.181 121.984C135.242 122.438 135.369 122.796 135.65 123.078C135.932 123.359 136.29 123.486 136.744 123.547C137.188 123.607 137.757 123.607 138.482 123.607H138.518C139.244 123.607 139.813 123.607 140.256 123.547C140.71 123.486 141.069 123.359 141.35 123.078C141.631 122.796 141.759 122.438 141.82 121.984C141.879 121.54 141.879 120.971 141.879 120.246V120.21C141.879 119.484 141.879 118.915 141.82 118.472C141.759 118.018 141.631 117.659 141.35 117.378C141.069 117.097 140.71 116.969 140.256 116.908C139.813 116.849 139.244 116.849 138.518 116.849ZM135.984 117.711C136.163 117.532 136.405 117.43 136.807 117.376C137.216 117.321 137.753 117.32 138.5 117.32C139.248 117.32 139.785 117.321 140.193 117.376C140.595 117.43 140.838 117.532 141.017 117.711C141.196 117.89 141.298 118.133 141.352 118.535C141.407 118.943 141.408 119.48 141.408 120.228C141.408 120.975 141.407 121.512 141.352 121.921C141.298 122.323 141.196 122.565 141.017 122.744C140.838 122.923 140.595 123.026 140.193 123.08C139.785 123.135 139.248 123.135 138.5 123.135C137.753 123.135 137.216 123.135 136.807 123.08C136.405 123.026 136.163 122.923 135.984 122.744C135.805 122.565 135.702 122.323 135.648 121.921C135.593 121.512 135.593 120.975 135.593 120.228C135.593 119.48 135.593 118.943 135.648 118.535C135.702 118.133 135.805 117.89 135.984 117.711Z" fill="#B6BBC4"/>
</g>
<defs>
<filter id="filter0_d_4773_7557" x="4" y="0" width="83" height="89" filterUnits="userSpaceOnUse" color-interpolation-filters="sRGB">
<feFlood flood-opacity="0" result="BackgroundImageFix"/>
<feColorMatrix in="SourceAlpha" type="matrix" values="0 0 0 0 0 0 0 0 0 0 0 0 0 0 0 0 0 0 127 0" result="hardAlpha"/>
<feOffset dy="3"/>
<feComposite in2="hardAlpha" operator="out"/>
<feColorMatrix type="matrix" values="0 0 0 0 0.837329 0 0 0 0 0.85465 0 0 0 0 0.88187 0 0 0 1 0"/>
<feBlend mode="normal" in2="BackgroundImageFix" result="effect1_dropShadow_4773_7557"/>
<feBlend mode="normal" in="SourceGraphic" in2="effect1_dropShadow_4773_7557" result="shape"/>
</filter>
<filter id="filter1_d_4773_7557" x="97" y="0" width="83" height="89" filterUnits="userSpaceOnUse" color-interpolation-filters="sRGB">
<feFlood flood-opacity="0" result="BackgroundImageFix"/>
<feColorMatrix in="SourceAlpha" type="matrix" values="0 0 0 0 0 0 0 0 0 0 0 0 0 0 0 0 0 0 127 0" result="hardAlpha"/>
<feOffset dy="3"/>
<feComposite in2="hardAlpha" operator="out"/>
<feColorMatrix type="matrix" values="0 0 0 0 0.837329 0 0 0 0 0.85465 0 0 0 0 0.88187 0 0 0 1 0"/>
<feBlend mode="normal" in2="BackgroundImageFix" result="effect1_dropShadow_4773_7557"/>
<feBlend mode="normal" in="SourceGraphic" in2="effect1_dropShadow_4773_7557" result="shape"/>
</filter>
<clipPath id="clip0_4773_7557">
<rect width="7.54411" height="7.54411" fill="white" transform="translate(41.728 116.456)"/>
</clipPath>
<clipPath id="clip1_4773_7557">
<rect width="7.54411" height="7.54411" fill="white" transform="translate(134.728 116.456)"/>
</clipPath>
</defs>
</svg>
