<svg width="24" height="25" viewBox="0 0 24 25" fill="none" xmlns="http://www.w3.org/2000/svg">
<path fill-rule="evenodd" clip-rule="evenodd" d="M17 13.8V9.5C17 7.1 15.3 5.1 13 4.6V3.5C13 3 12.5 2.5 12 2.5C11.5 2.5 11 3 11 3.5V4.6C8.7 5.1 7 7.1 7 9.5V13.9C5.9 14.4 4 15.8 4 18.5C4 19 4.5 19.5 5 19.5H9C9 21.1569 10.3431 22.5 12 22.5C13.6569 22.5 15 21.1569 15 19.5H16.0505C15.4022 18.8647 15 17.9793 15 17C15 15.5896 15.8342 14.374 17.0362 13.8199C17.024 13.8132 17.012 13.8065 17 13.8ZM12 20.5C11.4477 20.5 11 20.0523 11 19.5H13C13 20.0523 12.5523 20.5 12 20.5Z" fill="#F9C441"/>
<circle cx="17.5" cy="17" r="3.5" fill="#FF4141"/>
</svg>
