<svg width="154" height="52" viewBox="0 0 154 52" fill="none" xmlns="http://www.w3.org/2000/svg">
<path d="M4.40584 44.1787V46.479H7.45586V47.9444H4.40584V50.3469H7.87947V51.8635H2.59277V42.6963H7.87947V44.2128L4.40584 44.1787Z" fill="#0080DF"/>
<path d="M16.6894 43.2414C17.418 43.5992 17.9771 44.1786 18.4008 44.8601C18.8244 45.5417 18.9769 46.3766 18.9769 47.2627C18.9769 48.1487 18.7735 48.9836 18.4008 49.6652C17.9941 50.3468 17.4688 50.858 16.6894 51.2328C15.9607 51.5907 15.1305 51.8122 14.1477 51.8122H10.9282V42.645H14.1477C15.0796 42.7302 15.9607 42.8836 16.6894 43.2414ZM16.3166 49.4948C16.8419 48.9666 17.096 48.251 17.096 47.3138C17.096 46.3766 16.8419 45.5928 16.3166 45.0816C15.7913 44.5534 15.0796 44.2978 14.0968 44.2978H12.8091V50.3468H14.0968C15.0288 50.3298 15.8082 50.023 16.3166 49.4948Z" fill="#0080DF"/>
<path d="M23.5682 42.7302V48.4043C23.5682 49.0348 23.7207 49.4948 24.0426 49.8186C24.3476 50.1253 24.8221 50.3468 25.3982 50.3468C25.9743 50.3468 26.4318 50.1935 26.7538 49.8186C27.0588 49.5119 27.2282 49.0348 27.2282 48.4043V42.7302H29.0413V48.4043C29.0413 49.1881 28.8888 49.8697 28.516 50.3809C28.211 50.9091 27.7366 51.318 27.1604 51.5736C26.5843 51.8292 25.9743 51.9826 25.2965 51.9826C24.6188 51.9826 24.0088 51.8803 23.4326 51.5736C22.8565 51.318 22.4499 50.8921 22.1449 50.3809C21.8399 49.8697 21.6704 49.1881 21.6704 48.4043V42.7302H23.5682Z" fill="#0080DF"/>
<path d="M32.4814 44.8603C32.8881 44.1276 33.4134 43.6164 34.142 43.1904C34.8706 42.7644 35.6501 42.6111 36.5312 42.6111C37.5648 42.6111 38.4459 42.8667 39.2254 43.3949C40.0048 43.9231 40.5131 44.6388 40.8351 45.5759H38.717C38.5137 45.167 38.1917 44.7921 37.8359 44.5876C37.4801 44.3832 37.0056 44.2809 36.5481 44.2809C36.0228 44.2809 35.5653 44.3832 35.1417 44.6388C34.7181 44.8943 34.4131 45.2692 34.1589 45.6782C33.9556 46.1553 33.8031 46.6664 33.8031 47.2969C33.8031 47.9274 33.9048 48.4385 34.1589 48.8645C34.3623 49.3416 34.7351 49.6994 35.1417 49.9039C35.5484 50.1595 36.0228 50.2617 36.5481 50.2617C37.0734 50.2617 37.4801 50.1595 37.8359 49.955C38.1917 49.7506 38.5137 49.3757 38.717 48.9668H40.8351C40.5301 49.9039 40.0048 50.6366 39.2254 51.1478C38.4459 51.676 37.5648 51.9316 36.5312 51.9316C35.6501 51.9316 34.8706 51.7271 34.142 51.3523C33.4134 50.9944 32.9051 50.4151 32.4814 49.6824C32.0578 48.9497 31.8545 48.1659 31.8545 47.2799C31.8714 46.3768 32.0748 45.5419 32.4814 44.8603Z" fill="#0080DF"/>
<path d="M49.3767 50.1253H45.7506L45.1745 51.8974H43.2598L46.5301 42.7302H48.6481L51.9184 51.8974H50.0037L49.3767 50.1253ZM48.8684 48.6599L47.5128 44.809L46.1573 48.6599H48.8684Z" fill="#0080DF"/>
<path d="M60.7795 42.7302V44.2467H58.3395V51.9144H56.5264V44.2467H54.0864V42.7302H60.7795Z" fill="#0080DF"/>
<path d="M65.3389 42.7302V51.8974H63.5259V42.7302H65.3389Z" fill="#0080DF"/>
<path d="M70.4707 51.3693C69.7421 50.9603 69.1829 50.4321 68.7593 49.6994C68.3526 48.9667 68.1323 48.1829 68.1323 47.2969C68.1323 46.4108 68.3357 45.5759 68.7593 44.8943C69.1659 44.1616 69.7421 43.6504 70.4707 43.2245C71.1993 42.8155 71.9787 42.594 72.809 42.594C73.6901 42.594 74.4696 42.7985 75.1982 43.2245C75.9268 43.6334 76.486 44.1616 76.9096 44.8943C77.3163 45.627 77.5365 46.4108 77.5365 47.2969C77.5365 48.1829 77.3332 49.0178 76.9096 49.6994C76.5029 50.4321 75.9268 50.9433 75.1982 51.3693C74.4696 51.7782 73.6901 51.9997 72.8598 51.9997C71.9618 51.9486 71.1823 51.7441 70.4707 51.3693ZM74.2493 49.9209C74.656 49.6653 74.9779 49.2905 75.2321 48.8304C75.4863 48.3533 75.5879 47.8421 75.5879 47.2117C75.5879 46.5812 75.4863 46.07 75.2321 45.5929C74.9779 45.1158 74.656 44.758 74.2493 44.5535C73.8426 44.349 73.3174 44.1957 72.7921 44.1957C72.2668 44.1957 71.7585 44.2979 71.3348 44.5535C70.9282 44.8091 70.6062 45.1329 70.3521 45.5929C70.0979 46.07 69.9962 46.5812 69.9962 47.2117C69.9962 47.8421 70.0979 48.3533 70.3521 48.8304C70.6062 49.3075 70.9282 49.6653 71.3348 49.9209C71.7415 50.1765 72.2668 50.2787 72.7921 50.2787C73.3682 50.3299 73.8257 50.1765 74.2493 49.9209Z" fill="#0080DF"/>
<path d="M88.0773 51.8466H86.2643L82.1129 45.5421V51.8466H80.2998V42.6794H82.1298L86.2812 48.984V42.6794H88.0943V51.8466H88.0773Z" fill="#0080DF"/>
<path d="M6.84559 37.5672C4.72752 36.6812 3.06696 35.3862 1.8639 33.6652C0.677781 31.9442 0 29.9677 0 27.6674H8.08254C8.18421 29.235 8.76032 30.4277 9.74311 31.3138C10.7259 32.1998 12.0815 32.6769 13.7928 32.6769C15.5551 32.6769 16.9615 32.268 17.9443 31.433C18.927 30.5981 19.4523 29.4565 19.4523 28.0933C19.4523 26.9517 19.1473 26.0657 18.4187 25.333C17.7409 24.6003 16.8598 24.038 15.877 23.612C14.8434 23.2031 13.437 22.726 11.624 22.2488C9.18394 21.5162 7.21837 20.8346 5.65947 20.1189C4.10058 19.4033 2.81279 18.3468 1.72834 16.9326C0.643892 15.5183 0.0677784 13.5929 0.0677784 11.2074C0.0677784 8.9752 0.643892 7.03272 1.72834 5.3799C2.86363 3.71005 4.42252 2.46617 6.38809 1.58013C8.40449 0.694083 10.692 0.216981 13.2845 0.216981C17.1648 0.216981 20.2826 1.15414 22.7226 3.02847C25.1626 4.9028 26.5012 7.56094 26.7046 10.9518H18.4187C18.317 9.65678 17.7918 8.54922 16.7581 7.71429C15.7245 6.87936 14.369 6.47042 12.7084 6.47042C11.2512 6.47042 10.0651 6.82824 9.18394 7.61205C8.30282 8.39586 7.82837 9.48638 7.82837 10.9006C7.82837 11.8889 8.13338 12.7239 8.81116 13.4054C9.48894 14.087 10.3192 14.5982 11.302 15.0242C12.2848 15.4331 13.6912 15.9102 15.4534 16.4384C17.8934 17.1711 19.9098 17.9038 21.4179 18.6195C22.9768 19.3522 24.2646 20.4427 25.3999 21.8569C26.5351 23.3223 27.0604 25.1967 27.0604 27.531C27.0604 29.5587 26.5351 31.4331 25.5015 33.154C24.4679 34.875 22.909 36.2722 20.9434 37.2775C18.927 38.3169 16.5379 38.8452 13.7928 38.8452C11.302 38.9133 8.91282 38.4533 6.84559 37.5672ZM72.4887 16.9326H67.6765V38.8622H64.4062C62.3389 38.8622 60.6275 37.1412 60.6275 35.0624V9.74197C60.6275 6.35114 61.5595 3.84636 63.5251 2.24466C65.4398 0.625924 68.3373 -0.106763 72.2346 0.0125123V5.90812C70.5232 5.857 69.3879 6.16371 68.7101 6.74305C68.0323 7.32239 67.7273 8.41291 67.7273 9.98053V11.1222H72.5396L72.4887 16.9326ZM81.8082 16.9326V30.3255C81.8082 31.2627 82.0115 31.9442 82.486 32.3532C82.9604 32.7621 83.6721 32.9836 84.7735 32.9836H87.993V38.8792H83.6382C77.7754 38.8792 74.8271 36.0166 74.8271 30.2744V9.00928C74.8271 7.28831 76.1826 5.9422 77.8771 5.9422H81.8082V11.2074H86.8916L89.1113 16.9326H81.8082ZM118.595 11.2074L102.65 49.3925C101.972 50.9601 100.481 51.9995 98.7697 51.9995H94.1608L100.125 38.1977L89.0944 11.2074H93.5508C95.5672 11.2074 97.3294 12.4512 98.058 14.3256L104.022 30.53L110.343 13.644C110.868 12.1786 112.258 11.1903 113.816 11.1903H118.595V11.2074ZM43.7338 10.1509C35.8546 10.1509 29.4835 16.5577 29.4835 24.481C29.4835 32.4043 35.8546 38.8111 43.7338 38.8111C51.613 38.8111 57.9842 32.4043 57.9842 24.481C57.9842 16.5577 51.613 10.1509 43.7338 10.1509ZM43.7338 31.7738C39.7519 31.7738 36.5324 28.5364 36.5324 24.5321C36.5324 20.5279 39.7519 17.2904 43.7338 17.2904C47.7158 17.2904 50.9353 20.5279 50.9353 24.5321C50.9353 28.5364 47.7158 31.7738 43.7338 31.7738Z" fill="url(#paint0_linear_645_12092)"/>
<path d="M149.688 17.085L148.4 17.5621V25.6387H149.688V17.085Z" fill="url(#paint1_linear_645_12092)"/>
<path d="M124.764 44.4331C135.236 44.4331 143.674 40.3095 143.674 38.4863L143.623 38.2819H143.674V22.759L125.272 29.0125C125.12 29.0636 124.916 29.1147 124.747 29.1147C124.594 29.1147 124.391 29.0636 124.222 29.0125L115.105 25.8943L108.836 41.0593C112.225 42.7802 118.088 44.4331 124.764 44.4331Z" fill="url(#paint2_linear_645_12092)"/>
<path d="M153.569 15.7391L123.933 5.48145L116.207 23.2535L123.933 25.8605C124.459 26.0138 125.018 26.0138 125.594 25.8605L143.674 19.7093L151.909 16.8978L153.569 16.3185C153.84 16.1992 153.84 15.7902 153.569 15.7391Z" fill="url(#paint3_linear_645_12092)"/>
<path d="M150.163 25.2126H147.994C147.74 25.4682 147.52 25.8942 147.52 26.3032V31.2446C147.52 32.0795 148.197 32.8122 149.078 32.8122C149.909 32.8122 150.637 32.1306 150.637 31.2446V26.3032C150.57 25.8431 150.417 25.4682 150.163 25.2126Z" fill="url(#paint4_linear_645_12092)"/>
<defs>
<linearGradient id="paint0_linear_645_12092" x1="0" y1="25.9998" x2="118.595" y2="25.9998" gradientUnits="userSpaceOnUse">
<stop stop-color="#2860D7"/>
<stop offset="1" stop-color="#52ABF7"/>
</linearGradient>
<linearGradient id="paint1_linear_645_12092" x1="148.417" y1="21.3618" x2="149.71" y2="21.3618" gradientUnits="userSpaceOnUse">
<stop stop-color="#FFAB00"/>
<stop offset="1" stop-color="#FFC900"/>
</linearGradient>
<linearGradient id="paint2_linear_645_12092" x1="108.836" y1="33.5961" x2="143.674" y2="33.5961" gradientUnits="userSpaceOnUse">
<stop stop-color="#FFAB00"/>
<stop offset="1" stop-color="#FFC900"/>
</linearGradient>
<linearGradient id="paint3_linear_645_12092" x1="116.207" y1="15.7285" x2="153.773" y2="15.7285" gradientUnits="userSpaceOnUse">
<stop stop-color="#FFAB00"/>
<stop offset="1" stop-color="#FFC900"/>
</linearGradient>
<linearGradient id="paint4_linear_645_12092" x1="147.536" y1="29.0124" x2="150.591" y2="29.0124" gradientUnits="userSpaceOnUse">
<stop stop-color="#FFAB00"/>
<stop offset="1" stop-color="#FFC900"/>
</linearGradient>
</defs>
</svg>
