<svg width="47" height="47" viewBox="0 0 47 47" fill="none" xmlns="http://www.w3.org/2000/svg">
<rect x="3.42773" y="3.80109" width="40" height="40" rx="20" fill="#DDECFC"/>
<rect x="3.42773" y="3.80109" width="40" height="40" rx="20" stroke="#F7FBFE" stroke-width="6"/>
<path d="M19.666 27.5329L22.9993 24.1995M22.9993 24.1995L26.3327 27.5329M22.9993 24.1995V31.6995M29.666 28.1519C30.6839 27.3112 31.3327 26.0395 31.3327 24.6162C31.3327 22.0849 29.2807 20.0329 26.7493 20.0329C26.5673 20.0329 26.3969 19.9379 26.3044 19.781C25.2177 17.9369 23.2114 16.6995 20.916 16.6995C17.4642 16.6995 14.666 19.4977 14.666 22.9495C14.666 24.6713 15.3622 26.2304 16.4885 27.3608" stroke="#448FED" stroke-width="1.66667" stroke-linecap="round" stroke-linejoin="round"/>
</svg>
