<svg width="367" height="313" viewBox="0 0 367 313" fill="none" xmlns="http://www.w3.org/2000/svg">
<g filter="url(#filter0_d_4773_7774)">
<rect width="367" height="310" rx="10" fill="white" shape-rendering="crispEdges"/>
<rect x="0.5" y="0.5" width="366" height="309" rx="9.5" stroke="#D6DAE1" shape-rendering="crispEdges"/>
<rect x="22" y="92" width="323" height="126" rx="8" fill="white"/>
<rect x="163.5" y="108" width="40" height="40" rx="20" fill="#F2F4F7"/>
<rect x="163.5" y="108" width="40" height="40" rx="20" stroke="#F9FAFB" stroke-width="6"/>
<g clip-path="url(#clip0_4773_7774)">
<path d="M186.834 131.333L183.5 128M183.5 128L180.167 131.333M183.5 128V135.5M190.492 133.325C191.305 132.882 191.947 132.181 192.317 131.332C192.687 130.484 192.764 129.536 192.535 128.639C192.307 127.742 191.786 126.946 191.056 126.378C190.325 125.81 189.426 125.501 188.5 125.5H187.45C187.198 124.524 186.728 123.619 186.075 122.851C185.422 122.083 184.604 121.473 183.682 121.067C182.76 120.661 181.757 120.469 180.75 120.507C179.743 120.544 178.758 120.809 177.868 121.281C176.978 121.754 176.207 122.423 175.612 123.236C175.018 124.05 174.616 124.988 174.436 125.98C174.256 126.971 174.304 127.99 174.575 128.961C174.845 129.932 175.333 130.828 176 131.583" stroke="#475467" stroke-width="1.66667" stroke-linecap="round" stroke-linejoin="round"/>
</g>
<path d="M85.0753 168.129H83.5241C83.4645 167.798 83.3535 167.506 83.1911 167.254C83.0286 167.002 82.8298 166.789 82.5945 166.613C82.3591 166.437 82.0956 166.305 81.804 166.215C81.5156 166.126 81.209 166.081 80.8842 166.081C80.2976 166.081 79.7723 166.228 79.3082 166.523C78.8475 166.818 78.483 167.251 78.2145 167.821C77.9493 168.391 77.8168 169.087 77.8168 169.909C77.8168 170.738 77.9493 171.437 78.2145 172.007C78.483 172.577 78.8492 173.008 79.3132 173.3C79.7772 173.591 80.2992 173.737 80.8793 173.737C81.2008 173.737 81.5057 173.694 81.794 173.608C82.0857 173.518 82.3492 173.388 82.5845 173.215C82.8198 173.043 83.0187 172.832 83.1811 172.584C83.3468 172.332 83.4612 172.044 83.5241 171.719L85.0753 171.724C84.9924 172.224 84.8317 172.685 84.593 173.106C84.3577 173.523 84.0545 173.885 83.6832 174.19C83.3153 174.491 82.8944 174.725 82.4205 174.891C81.9465 175.056 81.4295 175.139 80.8693 175.139C79.9877 175.139 79.2022 174.93 78.5128 174.513C77.8234 174.092 77.2798 173.49 76.8821 172.708C76.4877 171.926 76.2905 170.993 76.2905 169.909C76.2905 168.822 76.4893 167.889 76.8871 167.11C77.2848 166.328 77.8284 165.728 78.5178 165.31C79.2071 164.889 79.991 164.679 80.8693 164.679C81.4096 164.679 81.9134 164.757 82.3807 164.913C82.8513 165.065 83.2739 165.29 83.6484 165.589C84.023 165.884 84.3329 166.245 84.5781 166.673C84.8234 167.097 84.9891 167.582 85.0753 168.129ZM88.2807 164.818V175H86.7942V164.818H88.2807ZM90.2805 175V167.364H91.767V175H90.2805ZM91.0312 166.185C90.7727 166.185 90.5507 166.099 90.3651 165.927C90.1828 165.751 90.0916 165.542 90.0916 165.3C90.0916 165.055 90.1828 164.846 90.3651 164.674C90.5507 164.498 90.7727 164.411 91.0312 164.411C91.2898 164.411 91.5102 164.498 91.6925 164.674C91.8781 164.846 91.9709 165.055 91.9709 165.3C91.9709 165.542 91.8781 165.751 91.6925 165.927C91.5102 166.099 91.2898 166.185 91.0312 166.185ZM96.9835 175.154C96.2444 175.154 95.608 174.987 95.0744 174.652C94.5441 174.314 94.1364 173.848 93.8514 173.255C93.5663 172.662 93.4238 171.982 93.4238 171.217C93.4238 170.441 93.5697 169.757 93.8613 169.163C94.153 168.567 94.564 168.101 95.0943 167.766C95.6246 167.432 96.2493 167.264 96.9686 167.264C97.5486 167.264 98.0656 167.372 98.5197 167.587C98.9738 167.799 99.34 168.098 99.6184 168.482C99.9002 168.867 100.068 169.316 100.121 169.83H98.6738C98.5943 169.472 98.412 169.163 98.127 168.905C97.8452 168.646 97.4674 168.517 96.9934 168.517C96.5791 168.517 96.2162 168.626 95.9047 168.845C95.5964 169.061 95.3561 169.369 95.1838 169.77C95.0114 170.168 94.9252 170.638 94.9252 171.182C94.9252 171.739 95.0098 172.219 95.1788 172.624C95.3478 173.028 95.5865 173.341 95.8947 173.563C96.2063 173.785 96.5725 173.896 96.9934 173.896C97.2752 173.896 97.5304 173.845 97.7591 173.742C97.9911 173.636 98.185 173.485 98.3407 173.29C98.4998 173.094 98.6109 172.859 98.6738 172.584H100.121C100.068 173.078 99.9068 173.518 99.6383 173.906C99.3699 174.294 99.0102 174.599 98.5595 174.821C98.112 175.043 97.5867 175.154 96.9835 175.154ZM103.077 172.41L103.067 170.595H103.326L106.369 167.364H108.148L104.678 171.043H104.445L103.077 172.41ZM101.71 175V164.818H103.197V175H101.71ZM106.533 175L103.798 171.371L104.822 170.332L108.357 175H106.533ZM116.773 167.364V168.557H112.602V167.364H116.773ZM113.72 165.534H115.207V172.758C115.207 173.046 115.25 173.263 115.336 173.409C115.422 173.552 115.533 173.649 115.669 173.702C115.808 173.752 115.959 173.777 116.122 173.777C116.241 173.777 116.345 173.769 116.435 173.752C116.524 173.736 116.594 173.722 116.644 173.712L116.912 174.94C116.826 174.973 116.703 175.007 116.544 175.04C116.385 175.076 116.186 175.096 115.948 175.099C115.557 175.106 115.192 175.036 114.854 174.891C114.516 174.745 114.242 174.519 114.034 174.214C113.825 173.91 113.72 173.527 113.72 173.066V165.534ZM121.552 175.154C120.836 175.154 120.211 174.99 119.678 174.662C119.144 174.334 118.73 173.875 118.435 173.285C118.14 172.695 117.992 172.005 117.992 171.217C117.992 170.424 118.14 169.732 118.435 169.138C118.73 168.545 119.144 168.085 119.678 167.756C120.211 167.428 120.836 167.264 121.552 167.264C122.268 167.264 122.893 167.428 123.426 167.756C123.96 168.085 124.374 168.545 124.669 169.138C124.964 169.732 125.112 170.424 125.112 171.217C125.112 172.005 124.964 172.695 124.669 173.285C124.374 173.875 123.96 174.334 123.426 174.662C122.893 174.99 122.268 175.154 121.552 175.154ZM121.557 173.906C122.021 173.906 122.405 173.784 122.71 173.538C123.015 173.293 123.241 172.967 123.386 172.559C123.536 172.151 123.61 171.702 123.61 171.212C123.61 170.724 123.536 170.277 123.386 169.869C123.241 169.458 123.015 169.129 122.71 168.88C122.405 168.631 122.021 168.507 121.557 168.507C121.089 168.507 120.702 168.631 120.393 168.88C120.089 169.129 119.862 169.458 119.712 169.869C119.567 170.277 119.494 170.724 119.494 171.212C119.494 171.702 119.567 172.151 119.712 172.559C119.862 172.967 120.089 173.293 120.393 173.538C120.702 173.784 121.089 173.906 121.557 173.906ZM135.313 171.833V167.364H136.805V175H135.343V173.678H135.263C135.088 174.085 134.806 174.425 134.418 174.697C134.034 174.965 133.555 175.099 132.982 175.099C132.491 175.099 132.057 174.992 131.679 174.776C131.304 174.558 131.009 174.234 130.794 173.807C130.582 173.379 130.476 172.851 130.476 172.221V167.364H131.962V172.042C131.962 172.562 132.107 172.977 132.395 173.285C132.683 173.593 133.058 173.747 133.518 173.747C133.797 173.747 134.074 173.678 134.349 173.538C134.627 173.399 134.857 173.189 135.04 172.907C135.225 172.625 135.317 172.267 135.313 171.833ZM138.802 177.864V167.364H140.254V168.602H140.378C140.464 168.442 140.588 168.259 140.751 168.05C140.913 167.841 141.139 167.659 141.427 167.503C141.715 167.344 142.097 167.264 142.57 167.264C143.187 167.264 143.737 167.42 144.221 167.732C144.705 168.043 145.084 168.492 145.36 169.079C145.638 169.665 145.777 170.371 145.777 171.197C145.777 172.022 145.64 172.73 145.365 173.32C145.089 173.906 144.712 174.359 144.231 174.677C143.75 174.992 143.202 175.149 142.585 175.149C142.121 175.149 141.742 175.071 141.447 174.915C141.155 174.76 140.927 174.577 140.761 174.369C140.595 174.16 140.468 173.974 140.378 173.812H140.289V177.864H138.802ZM140.259 171.182C140.259 171.719 140.337 172.189 140.492 172.594C140.648 172.998 140.874 173.315 141.169 173.543C141.463 173.769 141.825 173.881 142.252 173.881C142.696 173.881 143.068 173.764 143.366 173.528C143.664 173.29 143.89 172.967 144.042 172.559C144.198 172.151 144.276 171.692 144.276 171.182C144.276 170.678 144.2 170.226 144.047 169.825C143.898 169.424 143.673 169.107 143.371 168.875C143.073 168.643 142.7 168.527 142.252 168.527C141.821 168.527 141.457 168.638 141.159 168.86C140.864 169.082 140.64 169.392 140.487 169.79C140.335 170.187 140.259 170.652 140.259 171.182ZM148.929 164.818V175H147.443V164.818H148.929ZM154.146 175.154C153.43 175.154 152.805 174.99 152.271 174.662C151.738 174.334 151.323 173.875 151.028 173.285C150.733 172.695 150.586 172.005 150.586 171.217C150.586 170.424 150.733 169.732 151.028 169.138C151.323 168.545 151.738 168.085 152.271 167.756C152.805 167.428 153.43 167.264 154.146 167.264C154.862 167.264 155.486 167.428 156.02 167.756C156.554 168.085 156.968 168.545 157.263 169.138C157.558 169.732 157.705 170.424 157.705 171.217C157.705 172.005 157.558 172.695 157.263 173.285C156.968 173.875 156.554 174.334 156.02 174.662C155.486 174.99 154.862 175.154 154.146 175.154ZM154.151 173.906C154.615 173.906 154.999 173.784 155.304 173.538C155.609 173.293 155.834 172.967 155.98 172.559C156.129 172.151 156.204 171.702 156.204 171.212C156.204 170.724 156.129 170.277 155.98 169.869C155.834 169.458 155.609 169.129 155.304 168.88C154.999 168.631 154.615 168.507 154.151 168.507C153.683 168.507 153.295 168.631 152.987 168.88C152.682 169.129 152.455 169.458 152.306 169.869C152.16 170.277 152.087 170.724 152.087 171.212C152.087 171.702 152.16 172.151 152.306 172.559C152.455 172.967 152.682 173.293 152.987 173.538C153.295 173.784 153.683 173.906 154.151 173.906ZM161.587 175.169C161.103 175.169 160.665 175.08 160.274 174.901C159.883 174.718 159.573 174.455 159.345 174.11C159.119 173.765 159.007 173.343 159.007 172.842C159.007 172.411 159.089 172.057 159.255 171.778C159.421 171.5 159.645 171.28 159.926 171.117C160.208 170.955 160.523 170.832 160.871 170.749C161.219 170.666 161.574 170.603 161.935 170.56C162.392 170.507 162.763 170.464 163.048 170.431C163.334 170.395 163.541 170.337 163.67 170.257C163.799 170.178 163.864 170.048 163.864 169.869V169.835C163.864 169.4 163.741 169.064 163.496 168.825C163.254 168.587 162.893 168.467 162.412 168.467C161.912 168.467 161.517 168.578 161.229 168.8C160.944 169.019 160.747 169.263 160.637 169.531L159.24 169.213C159.406 168.749 159.648 168.375 159.966 168.089C160.288 167.801 160.657 167.592 161.075 167.463C161.492 167.33 161.932 167.264 162.392 167.264C162.697 167.264 163.02 167.301 163.362 167.374C163.706 167.443 164.028 167.572 164.326 167.761C164.628 167.95 164.875 168.22 165.067 168.572C165.259 168.92 165.355 169.372 165.355 169.929V175H163.904V173.956H163.844C163.748 174.148 163.604 174.337 163.411 174.523C163.219 174.708 162.972 174.862 162.671 174.985C162.369 175.108 162.008 175.169 161.587 175.169ZM161.91 173.976C162.321 173.976 162.672 173.895 162.964 173.732C163.259 173.57 163.483 173.358 163.635 173.096C163.791 172.831 163.869 172.547 163.869 172.246V171.261C163.816 171.314 163.713 171.364 163.561 171.411C163.411 171.454 163.241 171.492 163.048 171.525C162.856 171.555 162.669 171.583 162.487 171.609C162.304 171.633 162.152 171.652 162.029 171.669C161.741 171.705 161.477 171.767 161.239 171.853C161.003 171.939 160.815 172.063 160.672 172.226C160.533 172.385 160.463 172.597 160.463 172.862C160.463 173.23 160.599 173.509 160.871 173.697C161.143 173.883 161.489 173.976 161.91 173.976ZM170.194 175.149C169.577 175.149 169.027 174.992 168.543 174.677C168.063 174.359 167.685 173.906 167.41 173.32C167.138 172.73 167.002 172.022 167.002 171.197C167.002 170.371 167.14 169.665 167.415 169.079C167.693 168.492 168.074 168.043 168.558 167.732C169.042 167.42 169.591 167.264 170.204 167.264C170.678 167.264 171.059 167.344 171.347 167.503C171.639 167.659 171.864 167.841 172.023 168.05C172.186 168.259 172.312 168.442 172.401 168.602H172.491V164.818H173.977V175H172.526V173.812H172.401C172.312 173.974 172.183 174.16 172.013 174.369C171.848 174.577 171.619 174.76 171.327 174.915C171.036 175.071 170.658 175.149 170.194 175.149ZM170.522 173.881C170.95 173.881 171.311 173.769 171.606 173.543C171.904 173.315 172.129 172.998 172.282 172.594C172.438 172.189 172.516 171.719 172.516 171.182C172.516 170.652 172.439 170.187 172.287 169.79C172.134 169.392 171.911 169.082 171.616 168.86C171.321 168.638 170.956 168.527 170.522 168.527C170.075 168.527 169.702 168.643 169.403 168.875C169.105 169.107 168.88 169.424 168.727 169.825C168.578 170.226 168.504 170.678 168.504 171.182C168.504 171.692 168.58 172.151 168.732 172.559C168.885 172.967 169.11 173.29 169.408 173.528C169.71 173.764 170.081 173.881 170.522 173.881Z" fill="#2E71E2"/>
<path d="M183.676 175.159C182.987 175.159 182.382 174.995 181.862 174.667C181.344 174.339 180.94 173.88 180.648 173.29C180.36 172.7 180.216 172.01 180.216 171.222C180.216 170.426 180.36 169.732 180.648 169.138C180.94 168.545 181.344 168.085 181.862 167.756C182.382 167.428 182.987 167.264 183.676 167.264C184.366 167.264 184.969 167.428 185.486 167.756C186.006 168.085 186.411 168.545 186.699 169.138C186.991 169.732 187.136 170.426 187.136 171.222C187.136 172.01 186.991 172.7 186.699 173.29C186.411 173.88 186.006 174.339 185.486 174.667C184.969 174.995 184.366 175.159 183.676 175.159ZM183.676 174.105C184.2 174.105 184.631 173.971 184.969 173.702C185.307 173.434 185.557 173.081 185.719 172.643C185.882 172.206 185.963 171.732 185.963 171.222C185.963 170.711 185.882 170.236 185.719 169.795C185.557 169.354 185.307 168.998 184.969 168.726C184.631 168.454 184.2 168.318 183.676 168.318C183.152 168.318 182.722 168.454 182.384 168.726C182.045 168.998 181.795 169.354 181.633 169.795C181.47 170.236 181.389 170.711 181.389 171.222C181.389 171.732 181.47 172.206 181.633 172.643C181.795 173.081 182.045 173.434 182.384 173.702C182.722 173.971 183.152 174.105 183.676 174.105ZM188.927 175V167.364H190.061V168.517H190.14C190.28 168.139 190.532 167.833 190.896 167.597C191.261 167.362 191.672 167.244 192.129 167.244C192.215 167.244 192.323 167.246 192.452 167.249C192.581 167.253 192.679 167.258 192.746 167.264V168.457C192.706 168.447 192.615 168.433 192.472 168.413C192.333 168.389 192.185 168.378 192.03 168.378C191.658 168.378 191.327 168.456 191.035 168.612C190.747 168.764 190.518 168.976 190.349 169.248C190.184 169.516 190.101 169.823 190.101 170.168V175H188.927ZM200.957 175.159C200.321 175.159 199.759 174.998 199.272 174.677C198.785 174.352 198.404 173.895 198.129 173.305C197.853 172.711 197.716 172.01 197.716 171.202C197.716 170.4 197.853 169.704 198.129 169.114C198.404 168.524 198.786 168.068 199.277 167.746C199.768 167.425 200.334 167.264 200.977 167.264C201.474 167.264 201.867 167.347 202.156 167.513C202.447 167.675 202.669 167.861 202.822 168.07C202.978 168.275 203.098 168.444 203.185 168.577H203.284V164.818H204.457V175H203.324V173.827H203.185C203.098 173.966 202.976 174.142 202.817 174.354C202.658 174.562 202.431 174.75 202.136 174.915C201.841 175.078 201.448 175.159 200.957 175.159ZM201.116 174.105C201.587 174.105 201.985 173.982 202.31 173.737C202.634 173.489 202.881 173.146 203.05 172.708C203.219 172.267 203.304 171.759 203.304 171.182C203.304 170.612 203.221 170.113 203.055 169.685C202.89 169.254 202.644 168.92 202.32 168.681C201.995 168.439 201.594 168.318 201.116 168.318C200.619 168.318 200.205 168.446 199.874 168.701C199.545 168.953 199.299 169.296 199.133 169.73C198.97 170.161 198.889 170.645 198.889 171.182C198.889 171.725 198.972 172.219 199.138 172.663C199.307 173.104 199.555 173.455 199.884 173.717C200.215 173.976 200.626 174.105 201.116 174.105ZM206.769 175V167.364H207.903V168.517H207.982C208.121 168.139 208.373 167.833 208.738 167.597C209.103 167.362 209.513 167.244 209.971 167.244C210.057 167.244 210.165 167.246 210.294 167.249C210.423 167.253 210.521 167.258 210.587 167.264V168.457C210.548 168.447 210.456 168.433 210.314 168.413C210.175 168.389 210.027 168.378 209.871 168.378C209.5 168.378 209.169 168.456 208.877 168.612C208.589 168.764 208.36 168.976 208.191 169.248C208.025 169.516 207.942 169.823 207.942 170.168V175H206.769ZM214.225 175.179C213.741 175.179 213.302 175.088 212.908 174.906C212.513 174.72 212.2 174.453 211.968 174.105C211.736 173.754 211.62 173.33 211.62 172.832C211.62 172.395 211.706 172.04 211.879 171.768C212.051 171.493 212.281 171.278 212.57 171.122C212.858 170.966 213.176 170.85 213.524 170.774C213.876 170.695 214.229 170.632 214.583 170.585C215.047 170.526 215.423 170.481 215.712 170.451C216.003 170.418 216.216 170.363 216.348 170.287C216.484 170.211 216.552 170.078 216.552 169.889V169.849C216.552 169.359 216.418 168.978 216.149 168.706C215.884 168.434 215.481 168.298 214.941 168.298C214.381 168.298 213.942 168.421 213.624 168.666C213.306 168.911 213.082 169.173 212.953 169.452L211.839 169.054C212.038 168.59 212.303 168.229 212.634 167.97C212.969 167.708 213.334 167.526 213.728 167.423C214.126 167.317 214.517 167.264 214.901 167.264C215.147 167.264 215.428 167.294 215.747 167.354C216.068 167.41 216.378 167.528 216.676 167.707C216.978 167.886 217.228 168.156 217.427 168.517C217.626 168.878 217.725 169.362 217.725 169.969V175H216.552V173.966H216.492C216.413 174.132 216.28 174.309 216.095 174.498C215.909 174.687 215.662 174.848 215.354 174.98C215.046 175.113 214.669 175.179 214.225 175.179ZM214.404 174.125C214.868 174.125 215.259 174.034 215.578 173.852C215.899 173.669 216.141 173.434 216.303 173.146C216.469 172.857 216.552 172.554 216.552 172.236V171.162C216.502 171.222 216.393 171.276 216.224 171.326C216.058 171.372 215.866 171.414 215.647 171.45C215.432 171.483 215.221 171.513 215.016 171.54C214.814 171.563 214.65 171.583 214.524 171.599C214.219 171.639 213.934 171.704 213.669 171.793C213.407 171.879 213.195 172.01 213.032 172.186C212.873 172.358 212.794 172.594 212.794 172.892C212.794 173.3 212.944 173.608 213.246 173.817C213.551 174.022 213.937 174.125 214.404 174.125ZM222.949 178.023C222.382 178.023 221.895 177.95 221.488 177.804C221.08 177.661 220.74 177.473 220.468 177.237C220.2 177.005 219.986 176.757 219.827 176.491L220.762 175.835C220.868 175.974 221.002 176.134 221.164 176.312C221.327 176.495 221.549 176.652 221.831 176.785C222.116 176.921 222.489 176.989 222.949 176.989C223.566 176.989 224.074 176.839 224.475 176.541C224.877 176.243 225.077 175.776 225.077 175.139V173.588H224.978C224.891 173.727 224.769 173.9 224.61 174.105C224.454 174.307 224.229 174.488 223.934 174.647C223.642 174.803 223.248 174.881 222.75 174.881C222.134 174.881 221.58 174.735 221.09 174.443C220.603 174.152 220.217 173.727 219.931 173.17C219.65 172.614 219.509 171.937 219.509 171.142C219.509 170.36 219.646 169.679 219.922 169.099C220.197 168.515 220.579 168.065 221.07 167.746C221.56 167.425 222.127 167.264 222.77 167.264C223.267 167.264 223.662 167.347 223.953 167.513C224.248 167.675 224.474 167.861 224.63 168.07C224.789 168.275 224.911 168.444 224.998 168.577H225.117V167.364H226.25V175.219C226.25 175.875 226.101 176.409 225.803 176.82C225.508 177.234 225.11 177.537 224.61 177.729C224.113 177.925 223.559 178.023 222.949 178.023ZM222.909 173.827C223.38 173.827 223.778 173.719 224.103 173.504C224.427 173.288 224.674 172.978 224.843 172.574C225.012 172.17 225.097 171.686 225.097 171.122C225.097 170.572 225.014 170.086 224.848 169.665C224.683 169.245 224.437 168.915 224.113 168.676C223.788 168.437 223.387 168.318 222.909 168.318C222.412 168.318 221.998 168.444 221.667 168.696C221.338 168.948 221.092 169.286 220.926 169.71C220.763 170.134 220.682 170.605 220.682 171.122C220.682 171.652 220.765 172.121 220.931 172.529C221.1 172.933 221.348 173.252 221.676 173.484C222.008 173.712 222.419 173.827 222.909 173.827ZM234.583 175.179C234.099 175.179 233.66 175.088 233.265 174.906C232.871 174.72 232.558 174.453 232.326 174.105C232.094 173.754 231.978 173.33 231.978 172.832C231.978 172.395 232.064 172.04 232.236 171.768C232.408 171.493 232.639 171.278 232.927 171.122C233.216 170.966 233.534 170.85 233.882 170.774C234.233 170.695 234.586 170.632 234.941 170.585C235.405 170.526 235.781 170.481 236.069 170.451C236.361 170.418 236.573 170.363 236.706 170.287C236.842 170.211 236.909 170.078 236.909 169.889V169.849C236.909 169.359 236.775 168.978 236.507 168.706C236.242 168.434 235.839 168.298 235.299 168.298C234.739 168.298 234.299 168.421 233.981 168.666C233.663 168.911 233.439 169.173 233.31 169.452L232.196 169.054C232.395 168.59 232.66 168.229 232.992 167.97C233.327 167.708 233.691 167.526 234.086 167.423C234.483 167.317 234.874 167.264 235.259 167.264C235.504 167.264 235.786 167.294 236.104 167.354C236.426 167.41 236.735 167.528 237.034 167.707C237.335 167.886 237.586 168.156 237.784 168.517C237.983 168.878 238.083 169.362 238.083 169.969V175H236.909V173.966H236.85C236.77 174.132 236.638 174.309 236.452 174.498C236.266 174.687 236.02 174.848 235.711 174.98C235.403 175.113 235.027 175.179 234.583 175.179ZM234.762 174.125C235.226 174.125 235.617 174.034 235.935 173.852C236.257 173.669 236.498 173.434 236.661 173.146C236.827 172.857 236.909 172.554 236.909 172.236V171.162C236.86 171.222 236.75 171.276 236.581 171.326C236.416 171.372 236.223 171.414 236.005 171.45C235.789 171.483 235.579 171.513 235.373 171.54C235.171 171.563 235.007 171.583 234.881 171.599C234.576 171.639 234.291 171.704 234.026 171.793C233.764 171.879 233.552 172.01 233.39 172.186C233.23 172.358 233.151 172.594 233.151 172.892C233.151 173.3 233.302 173.608 233.603 173.817C233.908 174.022 234.294 174.125 234.762 174.125ZM241.398 170.406V175H240.224V167.364H241.358V168.557H241.457C241.636 168.169 241.908 167.857 242.273 167.622C242.637 167.384 243.108 167.264 243.684 167.264C244.202 167.264 244.654 167.37 245.042 167.582C245.43 167.791 245.731 168.109 245.947 168.537C246.162 168.961 246.27 169.498 246.27 170.148V175H245.096V170.227C245.096 169.627 244.941 169.16 244.629 168.825C244.318 168.487 243.89 168.318 243.346 168.318C242.972 168.318 242.637 168.399 242.342 168.562C242.05 168.724 241.82 168.961 241.651 169.273C241.482 169.584 241.398 169.962 241.398 170.406ZM251.297 175.159C250.661 175.159 250.099 174.998 249.612 174.677C249.125 174.352 248.743 173.895 248.468 173.305C248.193 172.711 248.056 172.01 248.056 171.202C248.056 170.4 248.193 169.704 248.468 169.114C248.743 168.524 249.126 168.068 249.617 167.746C250.107 167.425 250.674 167.264 251.317 167.264C251.814 167.264 252.207 167.347 252.495 167.513C252.787 167.675 253.009 167.861 253.162 168.07C253.317 168.275 253.438 168.444 253.525 168.577H253.624V164.818H254.797V175H253.664V173.827H253.525C253.438 173.966 253.316 174.142 253.157 174.354C252.998 174.562 252.77 174.75 252.475 174.915C252.181 175.078 251.788 175.159 251.297 175.159ZM251.456 174.105C251.927 174.105 252.325 173.982 252.65 173.737C252.974 173.489 253.221 173.146 253.39 172.708C253.559 172.267 253.644 171.759 253.644 171.182C253.644 170.612 253.561 170.113 253.395 169.685C253.23 169.254 252.984 168.92 252.659 168.681C252.335 168.439 251.934 168.318 251.456 168.318C250.959 168.318 250.545 168.446 250.213 168.701C249.885 168.953 249.638 169.296 249.473 169.73C249.31 170.161 249.229 170.645 249.229 171.182C249.229 171.725 249.312 172.219 249.478 172.663C249.647 173.104 249.895 173.455 250.223 173.717C250.555 173.976 250.966 174.105 251.456 174.105ZM263.93 175.159C263.294 175.159 262.732 174.998 262.245 174.677C261.757 174.352 261.376 173.895 261.101 173.305C260.826 172.711 260.689 172.01 260.689 171.202C260.689 170.4 260.826 169.704 261.101 169.114C261.376 168.524 261.759 168.068 262.25 167.746C262.74 167.425 263.307 167.264 263.95 167.264C264.447 167.264 264.84 167.347 265.128 167.513C265.42 167.675 265.642 167.861 265.794 168.07C265.95 168.275 266.071 168.444 266.157 168.577H266.257V164.818H267.43V175H266.297V173.827H266.157C266.071 173.966 265.949 174.142 265.789 174.354C265.63 174.562 265.403 174.75 265.108 174.915C264.813 175.078 264.421 175.159 263.93 175.159ZM264.089 174.105C264.56 174.105 264.958 173.982 265.282 173.737C265.607 173.489 265.854 173.146 266.023 172.708C266.192 172.267 266.277 171.759 266.277 171.182C266.277 170.612 266.194 170.113 266.028 169.685C265.862 169.254 265.617 168.92 265.292 168.681C264.967 168.439 264.566 168.318 264.089 168.318C263.592 168.318 263.178 168.446 262.846 168.701C262.518 168.953 262.271 169.296 262.105 169.73C261.943 170.161 261.862 170.645 261.862 171.182C261.862 171.725 261.945 172.219 262.11 172.663C262.279 173.104 262.528 173.455 262.856 173.717C263.188 173.976 263.599 174.105 264.089 174.105ZM269.742 175V167.364H270.875V168.517H270.955C271.094 168.139 271.346 167.833 271.711 167.597C272.075 167.362 272.486 167.244 272.944 167.244C273.03 167.244 273.137 167.246 273.267 167.249C273.396 167.253 273.494 167.258 273.56 167.264V168.457C273.52 168.447 273.429 168.433 273.287 168.413C273.147 168.389 273 168.378 272.844 168.378C272.473 168.378 272.141 168.456 271.85 168.612C271.561 168.764 271.333 168.976 271.164 169.248C270.998 169.516 270.915 169.823 270.915 170.168V175H269.742ZM277.821 175.159C277.131 175.159 276.526 174.995 276.006 174.667C275.489 174.339 275.085 173.88 274.793 173.29C274.505 172.7 274.36 172.01 274.36 171.222C274.36 170.426 274.505 169.732 274.793 169.138C275.085 168.545 275.489 168.085 276.006 167.756C276.526 167.428 277.131 167.264 277.821 167.264C278.51 167.264 279.113 167.428 279.63 167.756C280.151 168.085 280.555 168.545 280.843 169.138C281.135 169.732 281.281 170.426 281.281 171.222C281.281 172.01 281.135 172.7 280.843 173.29C280.555 173.88 280.151 174.339 279.63 174.667C279.113 174.995 278.51 175.159 277.821 175.159ZM277.821 174.105C278.344 174.105 278.775 173.971 279.113 173.702C279.451 173.434 279.702 173.081 279.864 172.643C280.026 172.206 280.108 171.732 280.108 171.222C280.108 170.711 280.026 170.236 279.864 169.795C279.702 169.354 279.451 168.998 279.113 168.726C278.775 168.454 278.344 168.318 277.821 168.318C277.297 168.318 276.866 168.454 276.528 168.726C276.19 168.998 275.94 169.354 275.777 169.795C275.615 170.236 275.534 170.711 275.534 171.222C275.534 171.732 275.615 172.206 275.777 172.643C275.94 173.081 276.19 173.434 276.528 173.702C276.866 173.971 277.297 174.105 277.821 174.105ZM283.072 177.864V167.364H284.205V168.577H284.345C284.431 168.444 284.55 168.275 284.703 168.07C284.858 167.861 285.08 167.675 285.369 167.513C285.66 167.347 286.055 167.264 286.552 167.264C287.195 167.264 287.762 167.425 288.252 167.746C288.743 168.068 289.126 168.524 289.401 169.114C289.676 169.704 289.813 170.4 289.813 171.202C289.813 172.01 289.676 172.711 289.401 173.305C289.126 173.895 288.744 174.352 288.257 174.677C287.77 174.998 287.208 175.159 286.572 175.159C286.081 175.159 285.689 175.078 285.394 174.915C285.099 174.75 284.872 174.562 284.713 174.354C284.553 174.142 284.431 173.966 284.345 173.827H284.245V177.864H283.072ZM284.225 171.182C284.225 171.759 284.31 172.267 284.479 172.708C284.648 173.146 284.895 173.489 285.22 173.737C285.544 173.982 285.942 174.105 286.413 174.105C286.903 174.105 287.313 173.976 287.641 173.717C287.972 173.455 288.221 173.104 288.387 172.663C288.556 172.219 288.64 171.725 288.64 171.182C288.64 170.645 288.557 170.161 288.392 169.73C288.229 169.296 287.982 168.953 287.651 168.701C287.323 168.446 286.91 168.318 286.413 168.318C285.936 168.318 285.535 168.439 285.21 168.681C284.885 168.92 284.64 169.254 284.474 169.685C284.308 170.113 284.225 170.612 284.225 171.182Z" fill="#667085"/>
<path d="M72.9155 190.455C72.8643 190.023 72.657 189.688 72.2933 189.449C71.9297 189.21 71.4837 189.091 70.9553 189.091C70.5689 189.091 70.2308 189.153 69.9411 189.278C69.6541 189.403 69.4297 189.575 69.2678 189.794C69.1087 190.013 69.0291 190.261 69.0291 190.54C69.0291 190.773 69.0845 190.973 69.1953 191.141C69.3089 191.305 69.4538 191.443 69.63 191.554C69.8061 191.662 69.9908 191.751 70.1839 191.822C70.3771 191.891 70.5547 191.946 70.7166 191.989L71.603 192.227C71.8303 192.287 72.0831 192.369 72.3615 192.474C72.6428 192.58 72.9112 192.723 73.1669 192.905C73.4254 193.084 73.6385 193.314 73.8061 193.595C73.9737 193.876 74.0575 194.222 74.0575 194.631C74.0575 195.102 73.9339 195.528 73.6868 195.909C73.4425 196.29 73.0845 196.592 72.6129 196.817C72.1442 197.041 71.5746 197.153 70.9041 197.153C70.2791 197.153 69.7379 197.053 69.2805 196.851C68.826 196.649 68.468 196.368 68.2067 196.007C67.9482 195.646 67.8018 195.227 67.7678 194.75H68.8587C68.8871 195.08 68.9979 195.352 69.1911 195.568C69.3871 195.781 69.6342 195.94 69.9325 196.045C70.2337 196.148 70.5575 196.199 70.9041 196.199C71.3075 196.199 71.6697 196.134 71.9908 196.003C72.3118 195.869 72.5661 195.685 72.7536 195.449C72.9411 195.21 73.0348 194.932 73.0348 194.614C73.0348 194.324 72.9538 194.088 72.7919 193.906C72.63 193.724 72.4169 193.577 72.1527 193.463C71.8885 193.349 71.603 193.25 71.2962 193.165L70.2223 192.858C69.5405 192.662 69.0007 192.382 68.603 192.018C68.2053 191.655 68.0064 191.179 68.0064 190.591C68.0064 190.102 68.1385 189.676 68.4027 189.312C68.6697 188.946 69.0277 188.662 69.4766 188.46C69.9283 188.256 70.4325 188.153 70.9893 188.153C71.5518 188.153 72.0518 188.254 72.4893 188.456C72.9268 188.655 73.2734 188.928 73.5291 189.274C73.7876 189.621 73.924 190.014 73.9382 190.455H72.9155ZM76.1531 188.273L78.744 195.619H78.8462L81.4371 188.273H82.5451L79.3406 197H78.2496L75.0451 188.273H76.1531ZM89.4602 191C89.3665 190.713 89.2429 190.456 89.0895 190.229C88.9389 189.999 88.7585 189.803 88.5483 189.641C88.3409 189.479 88.1051 189.355 87.8409 189.27C87.5767 189.185 87.2869 189.142 86.9716 189.142C86.4545 189.142 85.9844 189.276 85.5611 189.543C85.1378 189.81 84.8011 190.203 84.5511 190.723C84.3011 191.243 84.1761 191.881 84.1761 192.636C84.1761 193.392 84.3026 194.03 84.5554 194.55C84.8082 195.07 85.1506 195.463 85.5824 195.73C86.0142 195.997 86.5 196.131 87.0398 196.131C87.5398 196.131 87.9801 196.024 88.3608 195.811C88.7443 195.595 89.0426 195.291 89.2557 194.899C89.4716 194.504 89.5795 194.04 89.5795 193.506L89.9034 193.574H87.2784V192.636H90.6023V193.574C90.6023 194.293 90.4489 194.918 90.142 195.449C89.8381 195.98 89.4176 196.392 88.8807 196.685C88.3466 196.974 87.733 197.119 87.0398 197.119C86.267 197.119 85.5881 196.938 85.0028 196.574C84.4205 196.21 83.9659 195.693 83.6392 195.023C83.3153 194.352 83.1534 193.557 83.1534 192.636C83.1534 191.946 83.2457 191.325 83.4304 190.774C83.6179 190.22 83.8821 189.749 84.223 189.359C84.5639 188.97 84.9673 188.672 85.4332 188.464C85.8991 188.257 86.4119 188.153 86.9716 188.153C87.4318 188.153 87.8608 188.223 88.2585 188.362C88.6591 188.499 89.0156 188.693 89.3281 188.946C89.6435 189.196 89.9063 189.496 90.1165 189.845C90.3267 190.192 90.4716 190.577 90.5511 191H89.4602ZM93.7759 195.807L93.7077 196.267C93.6594 196.591 93.5856 196.938 93.4862 197.307C93.3896 197.676 93.2887 198.024 93.1836 198.351C93.0785 198.678 92.9918 198.938 92.9237 199.131H92.1566C92.1935 198.949 92.2418 198.709 92.3015 198.411C92.3612 198.112 92.4208 197.778 92.4805 197.409C92.543 197.043 92.5941 196.668 92.6339 196.284L92.685 195.807H93.7759ZM99.1506 197V188.273H102.099C102.784 188.273 103.344 188.396 103.778 188.643C104.216 188.888 104.54 189.219 104.75 189.636C104.96 190.054 105.065 190.52 105.065 191.034C105.065 191.548 104.96 192.016 104.75 192.436C104.543 192.857 104.222 193.192 103.787 193.442C103.352 193.689 102.795 193.812 102.116 193.812H100.003V192.875H102.082C102.551 192.875 102.928 192.794 103.212 192.632C103.496 192.47 103.702 192.251 103.83 191.976C103.96 191.697 104.026 191.384 104.026 191.034C104.026 190.685 103.96 190.372 103.83 190.097C103.702 189.821 103.494 189.605 103.207 189.449C102.92 189.29 102.54 189.21 102.065 189.21H100.207V197H99.1506ZM113.688 188.273V197H112.665L107.91 190.148H107.825V197H106.768V188.273H107.79L112.563 195.142H112.648V188.273H113.688ZM121.769 191C121.675 190.713 121.551 190.456 121.398 190.229C121.248 189.999 121.067 189.803 120.857 189.641C120.65 189.479 120.414 189.355 120.15 189.27C119.885 189.185 119.596 189.142 119.28 189.142C118.763 189.142 118.293 189.276 117.87 189.543C117.446 189.81 117.11 190.203 116.86 190.723C116.61 191.243 116.485 191.881 116.485 192.636C116.485 193.392 116.611 194.03 116.864 194.55C117.117 195.07 117.459 195.463 117.891 195.73C118.323 195.997 118.809 196.131 119.348 196.131C119.848 196.131 120.289 196.024 120.669 195.811C121.053 195.595 121.351 195.291 121.564 194.899C121.78 194.504 121.888 194.04 121.888 193.506L122.212 193.574H119.587V192.636H122.911V193.574C122.911 194.293 122.757 194.918 122.451 195.449C122.147 195.98 121.726 196.392 121.189 196.685C120.655 196.974 120.042 197.119 119.348 197.119C118.576 197.119 117.897 196.938 117.311 196.574C116.729 196.21 116.275 195.693 115.948 195.023C115.624 194.352 115.462 193.557 115.462 192.636C115.462 191.946 115.554 191.325 115.739 190.774C115.926 190.22 116.191 189.749 116.532 189.359C116.873 188.97 117.276 188.672 117.742 188.464C118.208 188.257 118.721 188.153 119.28 188.153C119.74 188.153 120.169 188.223 120.567 188.362C120.968 188.499 121.324 188.693 121.637 188.946C121.952 189.196 122.215 189.496 122.425 189.845C122.635 190.192 122.78 190.577 122.86 191H121.769ZM126.085 195.807L126.016 196.267C125.968 196.591 125.894 196.938 125.795 197.307C125.698 197.676 125.597 198.024 125.492 198.351C125.387 198.678 125.3 198.938 125.232 199.131H124.465C124.502 198.949 124.55 198.709 124.61 198.411C124.67 198.112 124.729 197.778 124.789 197.409C124.852 197.043 124.903 196.668 124.942 196.284L124.994 195.807H126.085ZM134.8 188.273H135.857V194.511C135.857 195.068 135.755 195.541 135.55 195.93C135.346 196.32 135.057 196.615 134.685 196.817C134.313 197.018 133.874 197.119 133.368 197.119C132.891 197.119 132.466 197.033 132.094 196.859C131.722 196.683 131.429 196.433 131.216 196.109C131.003 195.786 130.897 195.401 130.897 194.955H131.936C131.936 195.202 131.998 195.418 132.12 195.602C132.245 195.784 132.415 195.926 132.631 196.028C132.847 196.131 133.093 196.182 133.368 196.182C133.672 196.182 133.931 196.118 134.144 195.99C134.357 195.862 134.519 195.675 134.63 195.428C134.743 195.178 134.8 194.872 134.8 194.511V188.273ZM137.975 197V188.273H140.924C141.608 188.273 142.168 188.396 142.603 188.643C143.04 188.888 143.364 189.219 143.574 189.636C143.784 190.054 143.89 190.52 143.89 191.034C143.89 191.548 143.784 192.016 143.574 192.436C143.367 192.857 143.046 193.192 142.611 193.442C142.176 193.689 141.62 193.812 140.941 193.812H138.827V192.875H140.907C141.375 192.875 141.752 192.794 142.036 192.632C142.32 192.47 142.526 192.251 142.654 191.976C142.784 191.697 142.85 191.384 142.85 191.034C142.85 190.685 142.784 190.372 142.654 190.097C142.526 189.821 142.319 189.605 142.032 189.449C141.745 189.29 141.364 189.21 140.89 189.21H139.032V197H137.975ZM151.558 191C151.464 190.713 151.341 190.456 151.187 190.229C151.037 189.999 150.856 189.803 150.646 189.641C150.439 189.479 150.203 189.355 149.939 189.27C149.674 189.185 149.385 189.142 149.069 189.142C148.552 189.142 148.082 189.276 147.659 189.543C147.235 189.81 146.899 190.203 146.649 190.723C146.399 191.243 146.274 191.881 146.274 192.636C146.274 193.392 146.4 194.03 146.653 194.55C146.906 195.07 147.248 195.463 147.68 195.73C148.112 195.997 148.598 196.131 149.137 196.131C149.637 196.131 150.078 196.024 150.458 195.811C150.842 195.595 151.14 195.291 151.353 194.899C151.569 194.504 151.677 194.04 151.677 193.506L152.001 193.574H149.376V192.636H152.7V193.574C152.7 194.293 152.547 194.918 152.24 195.449C151.936 195.98 151.515 196.392 150.978 196.685C150.444 196.974 149.831 197.119 149.137 197.119C148.365 197.119 147.686 196.938 147.1 196.574C146.518 196.21 146.064 195.693 145.737 195.023C145.413 194.352 145.251 193.557 145.251 192.636C145.251 191.946 145.343 191.325 145.528 190.774C145.716 190.22 145.98 189.749 146.321 189.359C146.662 188.97 147.065 188.672 147.531 188.464C147.997 188.257 148.51 188.153 149.069 188.153C149.529 188.153 149.958 188.223 150.356 188.362C150.757 188.499 151.113 188.693 151.426 188.946C151.741 189.196 152.004 189.496 152.214 189.845C152.424 190.192 152.569 190.577 152.649 191H151.558ZM160.408 197.136C159.817 197.136 159.298 196.996 158.852 196.714C158.409 196.433 158.062 196.04 157.812 195.534C157.565 195.028 157.442 194.437 157.442 193.761C157.442 193.08 157.565 192.484 157.812 191.976C158.062 191.467 158.409 191.072 158.852 190.791C159.298 190.51 159.817 190.369 160.408 190.369C160.999 190.369 161.516 190.51 161.959 190.791C162.405 191.072 162.751 191.467 162.999 191.976C163.249 192.484 163.374 193.08 163.374 193.761C163.374 194.437 163.249 195.028 162.999 195.534C162.751 196.04 162.405 196.433 161.959 196.714C161.516 196.996 160.999 197.136 160.408 197.136ZM160.408 196.233C160.857 196.233 161.226 196.118 161.516 195.888C161.805 195.658 162.02 195.355 162.159 194.98C162.298 194.605 162.368 194.199 162.368 193.761C162.368 193.324 162.298 192.916 162.159 192.538C162.02 192.161 161.805 191.855 161.516 191.622C161.226 191.389 160.857 191.273 160.408 191.273C159.959 191.273 159.589 191.389 159.3 191.622C159.01 191.855 158.795 192.161 158.656 192.538C158.517 192.916 158.447 193.324 158.447 193.761C158.447 194.199 158.517 194.605 158.656 194.98C158.795 195.355 159.01 195.658 159.3 195.888C159.589 196.118 159.959 196.233 160.408 196.233ZM164.909 197V190.455H165.88V191.443H165.949C166.068 191.119 166.284 190.857 166.596 190.655C166.909 190.453 167.261 190.352 167.653 190.352C167.727 190.352 167.819 190.354 167.93 190.357C168.041 190.359 168.125 190.364 168.181 190.369V191.392C168.147 191.384 168.069 191.371 167.947 191.354C167.828 191.334 167.701 191.324 167.568 191.324C167.25 191.324 166.966 191.391 166.716 191.524C166.468 191.655 166.272 191.837 166.127 192.07C165.985 192.3 165.914 192.562 165.914 192.858V197H164.909ZM178.851 191C178.757 190.713 178.634 190.456 178.48 190.229C178.33 189.999 178.149 189.803 177.939 189.641C177.732 189.479 177.496 189.355 177.232 189.27C176.967 189.185 176.678 189.142 176.362 189.142C175.845 189.142 175.375 189.276 174.952 189.543C174.528 189.81 174.192 190.203 173.942 190.723C173.692 191.243 173.567 191.881 173.567 192.636C173.567 193.392 173.693 194.03 173.946 194.55C174.199 195.07 174.541 195.463 174.973 195.73C175.405 195.997 175.891 196.131 176.43 196.131C176.93 196.131 177.371 196.024 177.751 195.811C178.135 195.595 178.433 195.291 178.646 194.899C178.862 194.504 178.97 194.04 178.97 193.506L179.294 193.574H176.669V192.636H179.993V193.574C179.993 194.293 179.839 194.918 179.533 195.449C179.229 195.98 178.808 196.392 178.271 196.685C177.737 196.974 177.124 197.119 176.43 197.119C175.658 197.119 174.979 196.938 174.393 196.574C173.811 196.21 173.357 195.693 173.03 195.023C172.706 194.352 172.544 193.557 172.544 192.636C172.544 191.946 172.636 191.325 172.821 190.774C173.009 190.22 173.273 189.749 173.614 189.359C173.955 188.97 174.358 188.672 174.824 188.464C175.29 188.257 175.803 188.153 176.362 188.153C176.822 188.153 177.251 188.223 177.649 188.362C178.05 188.499 178.406 188.693 178.719 188.946C179.034 189.196 179.297 189.496 179.507 189.845C179.717 190.192 179.862 190.577 179.942 191H178.851ZM182.86 188.273V197H181.803V188.273H182.86ZM184.979 197V188.273H190.212V189.21H186.036V192.159H189.82V193.097H186.036V197H184.979ZM195.618 193.318C195.618 192.244 195.757 191.257 196.036 190.357C196.317 189.453 196.718 188.622 197.238 187.864H198.124C197.919 188.145 197.728 188.491 197.549 188.903C197.373 189.312 197.218 189.763 197.084 190.254C196.951 190.743 196.846 191.249 196.769 191.771C196.695 192.294 196.658 192.81 196.658 193.318C196.658 193.994 196.723 194.68 196.854 195.376C196.985 196.072 197.161 196.719 197.382 197.315C197.604 197.912 197.851 198.398 198.124 198.773H197.238C196.718 198.014 196.317 197.185 196.036 196.284C195.757 195.381 195.618 194.392 195.618 193.318ZM199.608 197V190.455H200.58V191.477H200.665C200.801 191.128 201.021 190.857 201.325 190.663C201.629 190.467 201.994 190.369 202.42 190.369C202.852 190.369 203.212 190.467 203.499 190.663C203.788 190.857 204.014 191.128 204.176 191.477H204.244C204.412 191.139 204.663 190.871 204.999 190.672C205.334 190.47 205.736 190.369 206.205 190.369C206.79 190.369 207.268 190.553 207.641 190.919C208.013 191.283 208.199 191.849 208.199 192.619V197H207.193V192.619C207.193 192.136 207.061 191.791 206.797 191.584C206.533 191.376 206.222 191.273 205.864 191.273C205.403 191.273 205.047 191.412 204.794 191.69C204.541 191.966 204.415 192.315 204.415 192.739V197H203.392V192.517C203.392 192.145 203.271 191.845 203.03 191.618C202.788 191.388 202.477 191.273 202.097 191.273C201.835 191.273 201.591 191.342 201.364 191.482C201.139 191.621 200.957 191.814 200.818 192.061C200.682 192.305 200.614 192.588 200.614 192.909V197H199.608ZM211.964 197.153C211.549 197.153 211.173 197.075 210.835 196.919C210.496 196.76 210.228 196.531 210.029 196.233C209.83 195.932 209.731 195.568 209.731 195.142C209.731 194.767 209.805 194.463 209.952 194.23C210.1 193.994 210.298 193.81 210.545 193.676C210.792 193.543 211.065 193.443 211.363 193.378C211.664 193.31 211.967 193.256 212.271 193.216C212.668 193.165 212.991 193.126 213.238 193.101C213.488 193.072 213.67 193.026 213.783 192.96C213.9 192.895 213.958 192.781 213.958 192.619V192.585C213.958 192.165 213.843 191.838 213.613 191.605C213.386 191.372 213.04 191.256 212.577 191.256C212.097 191.256 211.721 191.361 211.448 191.571C211.175 191.781 210.984 192.006 210.873 192.244L209.918 191.903C210.089 191.506 210.316 191.196 210.6 190.974C210.887 190.75 211.2 190.594 211.538 190.506C211.879 190.415 212.214 190.369 212.543 190.369C212.754 190.369 212.995 190.395 213.268 190.446C213.543 190.494 213.809 190.595 214.065 190.749C214.323 190.902 214.538 191.134 214.708 191.443C214.879 191.753 214.964 192.168 214.964 192.688V197H213.958V196.114H213.907C213.839 196.256 213.725 196.408 213.566 196.57C213.407 196.732 213.195 196.869 212.931 196.983C212.667 197.097 212.344 197.153 211.964 197.153ZM212.117 196.25C212.515 196.25 212.85 196.172 213.123 196.016C213.398 195.859 213.606 195.658 213.745 195.411C213.887 195.163 213.958 194.903 213.958 194.631V193.71C213.915 193.761 213.822 193.808 213.677 193.851C213.535 193.891 213.37 193.926 213.183 193.957C212.998 193.986 212.817 194.011 212.641 194.034C212.468 194.054 212.327 194.071 212.219 194.085C211.958 194.119 211.714 194.175 211.487 194.251C211.262 194.325 211.08 194.437 210.941 194.588C210.805 194.736 210.737 194.937 210.737 195.193C210.737 195.543 210.866 195.807 211.124 195.986C211.386 196.162 211.717 196.25 212.117 196.25ZM217.549 190.455L219.118 193.131L220.686 190.455H221.845L219.731 193.727L221.845 197H220.686L219.118 194.46L217.549 197H216.39L218.47 193.727L216.39 190.455H217.549ZM224.013 197.068C223.803 197.068 223.622 196.993 223.472 196.842C223.321 196.692 223.246 196.511 223.246 196.301C223.246 196.091 223.321 195.911 223.472 195.76C223.622 195.609 223.803 195.534 224.013 195.534C224.223 195.534 224.403 195.609 224.554 195.76C224.705 195.911 224.78 196.091 224.78 196.301C224.78 196.44 224.744 196.568 224.673 196.685C224.605 196.801 224.513 196.895 224.396 196.966C224.283 197.034 224.155 197.068 224.013 197.068ZM232.738 197.119C232.153 197.119 231.636 197.016 231.187 196.808C230.741 196.598 230.393 196.31 230.143 195.943C229.893 195.574 229.769 195.153 229.772 194.682C229.769 194.312 229.842 193.972 229.989 193.659C230.137 193.344 230.339 193.081 230.594 192.871C230.853 192.658 231.141 192.523 231.46 192.466V192.415C231.042 192.307 230.71 192.072 230.462 191.712C230.215 191.348 230.093 190.935 230.096 190.472C230.093 190.028 230.205 189.632 230.433 189.283C230.66 188.933 230.972 188.658 231.37 188.456C231.771 188.254 232.227 188.153 232.738 188.153C233.244 188.153 233.695 188.254 234.093 188.456C234.491 188.658 234.803 188.933 235.031 189.283C235.261 189.632 235.377 190.028 235.38 190.472C235.377 190.935 235.251 191.348 235.001 191.712C234.754 192.072 234.425 192.307 234.016 192.415V192.466C234.332 192.523 234.616 192.658 234.869 192.871C235.121 193.081 235.323 193.344 235.474 193.659C235.624 193.972 235.701 194.312 235.704 194.682C235.701 195.153 235.573 195.574 235.32 195.943C235.07 196.31 234.722 196.598 234.276 196.808C233.833 197.016 233.32 197.119 232.738 197.119ZM232.738 196.182C233.133 196.182 233.474 196.118 233.761 195.99C234.048 195.862 234.269 195.682 234.425 195.449C234.582 195.216 234.661 194.943 234.664 194.631C234.661 194.301 234.576 194.01 234.408 193.757C234.241 193.504 234.012 193.305 233.722 193.161C233.435 193.016 233.107 192.943 232.738 192.943C232.366 192.943 232.033 193.016 231.741 193.161C231.451 193.305 231.222 193.504 231.055 193.757C230.89 194.01 230.809 194.301 230.812 194.631C230.809 194.943 230.884 195.216 231.038 195.449C231.194 195.682 231.417 195.862 231.707 195.99C231.996 196.118 232.34 196.182 232.738 196.182ZM232.738 192.04C233.05 192.04 233.327 191.977 233.569 191.852C233.813 191.727 234.005 191.553 234.144 191.328C234.283 191.104 234.354 190.841 234.357 190.54C234.354 190.244 234.285 189.987 234.148 189.768C234.012 189.547 233.823 189.376 233.582 189.257C233.34 189.135 233.059 189.074 232.738 189.074C232.411 189.074 232.126 189.135 231.881 189.257C231.637 189.376 231.448 189.547 231.315 189.768C231.181 189.987 231.116 190.244 231.119 190.54C231.116 190.841 231.183 191.104 231.319 191.328C231.458 191.553 231.65 191.727 231.894 191.852C232.138 191.977 232.42 192.04 232.738 192.04ZM240.184 197.119C239.542 197.119 238.995 196.945 238.543 196.595C238.091 196.243 237.746 195.733 237.507 195.065C237.269 194.395 237.15 193.585 237.15 192.636C237.15 191.693 237.269 190.888 237.507 190.22C237.749 189.55 238.096 189.038 238.547 188.686C239.002 188.331 239.547 188.153 240.184 188.153C240.82 188.153 241.364 188.331 241.816 188.686C242.27 189.038 242.617 189.55 242.855 190.22C243.097 190.888 243.218 191.693 243.218 192.636C243.218 193.585 243.098 194.395 242.86 195.065C242.621 195.733 242.276 196.243 241.824 196.595C241.373 196.945 240.826 197.119 240.184 197.119ZM240.184 196.182C240.82 196.182 241.314 195.875 241.667 195.261C242.019 194.648 242.195 193.773 242.195 192.636C242.195 191.881 242.114 191.237 241.952 190.706C241.793 190.175 241.563 189.77 241.262 189.491C240.963 189.213 240.604 189.074 240.184 189.074C239.553 189.074 239.06 189.385 238.705 190.007C238.35 190.626 238.172 191.503 238.172 192.636C238.172 193.392 238.252 194.034 238.411 194.562C238.57 195.091 238.799 195.493 239.097 195.768C239.398 196.044 239.76 196.182 240.184 196.182ZM247.684 197.119C247.042 197.119 246.495 196.945 246.043 196.595C245.591 196.243 245.246 195.733 245.007 195.065C244.769 194.395 244.65 193.585 244.65 192.636C244.65 191.693 244.769 190.888 245.007 190.22C245.249 189.55 245.596 189.038 246.047 188.686C246.502 188.331 247.047 188.153 247.684 188.153C248.32 188.153 248.864 188.331 249.316 188.686C249.77 189.038 250.117 189.55 250.355 190.22C250.597 190.888 250.718 191.693 250.718 192.636C250.718 193.585 250.598 194.395 250.36 195.065C250.121 195.733 249.776 196.243 249.324 196.595C248.873 196.945 248.326 197.119 247.684 197.119ZM247.684 196.182C248.32 196.182 248.814 195.875 249.167 195.261C249.519 194.648 249.695 193.773 249.695 192.636C249.695 191.881 249.614 191.237 249.452 190.706C249.293 190.175 249.063 189.77 248.762 189.491C248.463 189.213 248.104 189.074 247.684 189.074C247.053 189.074 246.56 189.385 246.205 190.007C245.85 190.626 245.672 191.503 245.672 192.636C245.672 193.392 245.752 194.034 245.911 194.562C246.07 195.091 246.299 195.493 246.597 195.768C246.898 196.044 247.26 196.182 247.684 196.182ZM257.468 195.432L252.661 190.625L253.309 189.977L258.115 194.784L257.468 195.432ZM253.309 195.432L252.661 194.784L257.468 189.977L258.115 190.625L253.309 195.432ZM260.043 195.21V194.341L263.878 188.273H264.509V189.619H264.082L261.185 194.205V194.273H266.349V195.21H260.043ZM264.151 197V194.946V194.541V188.273H265.156V197H264.151ZM270.793 197.119C270.151 197.119 269.604 196.945 269.152 196.595C268.701 196.243 268.355 195.733 268.117 195.065C267.878 194.395 267.759 193.585 267.759 192.636C267.759 191.693 267.878 190.888 268.117 190.22C268.358 189.55 268.705 189.038 269.157 188.686C269.611 188.331 270.157 188.153 270.793 188.153C271.429 188.153 271.973 188.331 272.425 188.686C272.88 189.038 273.226 189.55 273.465 190.22C273.706 190.888 273.827 191.693 273.827 192.636C273.827 193.585 273.708 194.395 273.469 195.065C273.23 195.733 272.885 196.243 272.434 196.595C271.982 196.945 271.435 197.119 270.793 197.119ZM270.793 196.182C271.429 196.182 271.924 195.875 272.276 195.261C272.628 194.648 272.804 193.773 272.804 192.636C272.804 191.881 272.723 191.237 272.561 190.706C272.402 190.175 272.172 189.77 271.871 189.491C271.573 189.213 271.213 189.074 270.793 189.074C270.162 189.074 269.669 189.385 269.314 190.007C268.959 190.626 268.782 191.503 268.782 192.636C268.782 193.392 268.861 194.034 269.02 194.562C269.179 195.091 269.408 195.493 269.706 195.768C270.007 196.044 270.37 196.182 270.793 196.182ZM278.293 197.119C277.651 197.119 277.104 196.945 276.652 196.595C276.201 196.243 275.855 195.733 275.617 195.065C275.378 194.395 275.259 193.585 275.259 192.636C275.259 191.693 275.378 190.888 275.617 190.22C275.858 189.55 276.205 189.038 276.657 188.686C277.111 188.331 277.657 188.153 278.293 188.153C278.929 188.153 279.473 188.331 279.925 188.686C280.38 189.038 280.726 189.55 280.965 190.22C281.206 190.888 281.327 191.693 281.327 192.636C281.327 193.585 281.208 194.395 280.969 195.065C280.73 195.733 280.385 196.243 279.934 196.595C279.482 196.945 278.935 197.119 278.293 197.119ZM278.293 196.182C278.929 196.182 279.424 195.875 279.776 195.261C280.128 194.648 280.304 193.773 280.304 192.636C280.304 191.881 280.223 191.237 280.061 190.706C279.902 190.175 279.672 189.77 279.371 189.491C279.073 189.213 278.713 189.074 278.293 189.074C277.662 189.074 277.169 189.385 276.814 190.007C276.459 190.626 276.282 191.503 276.282 192.636C276.282 193.392 276.361 194.034 276.52 194.562C276.679 195.091 276.908 195.493 277.206 195.768C277.507 196.044 277.87 196.182 278.293 196.182ZM282.963 199.455V190.455H283.935V191.494H284.054C284.128 191.381 284.23 191.236 284.361 191.06C284.495 190.881 284.685 190.722 284.932 190.582C285.182 190.44 285.52 190.369 285.946 190.369C286.498 190.369 286.983 190.507 287.404 190.783C287.824 191.058 288.152 191.449 288.388 191.955C288.624 192.46 288.742 193.057 288.742 193.744C288.742 194.438 288.624 195.038 288.388 195.547C288.152 196.053 287.826 196.445 287.408 196.723C286.99 196.999 286.509 197.136 285.963 197.136C285.543 197.136 285.206 197.067 284.953 196.928C284.701 196.786 284.506 196.625 284.37 196.446C284.233 196.264 284.128 196.114 284.054 195.994H283.969V199.455H282.963ZM283.952 193.727C283.952 194.222 284.025 194.658 284.169 195.036C284.314 195.411 284.526 195.705 284.804 195.918C285.083 196.128 285.424 196.233 285.827 196.233C286.248 196.233 286.598 196.122 286.88 195.901C287.164 195.676 287.377 195.375 287.519 194.997C287.664 194.616 287.736 194.193 287.736 193.727C287.736 193.267 287.665 192.852 287.523 192.483C287.384 192.111 287.172 191.817 286.888 191.601C286.607 191.382 286.253 191.273 285.827 191.273C285.418 191.273 285.074 191.376 284.796 191.584C284.517 191.788 284.307 192.075 284.165 192.445C284.023 192.811 283.952 193.239 283.952 193.727ZM290.756 190.455L292.325 193.131L293.893 190.455H295.052L292.938 193.727L295.052 197H293.893L292.325 194.46L290.756 197H289.597L291.677 193.727L289.597 190.455H290.756ZM298.635 193.318C298.635 194.392 298.494 195.381 298.213 196.284C297.934 197.185 297.535 198.014 297.015 198.773H296.129C296.333 198.491 296.524 198.145 296.7 197.733C296.879 197.324 297.035 196.875 297.169 196.386C297.302 195.895 297.406 195.388 297.48 194.865C297.556 194.339 297.595 193.824 297.595 193.318C297.595 192.642 297.529 191.956 297.399 191.26C297.268 190.564 297.092 189.918 296.87 189.321C296.649 188.724 296.402 188.239 296.129 187.864H297.015C297.535 188.622 297.934 189.453 298.213 190.357C298.494 191.257 298.635 192.244 298.635 193.318Z" fill="#667085"/>
</g>
<path d="M353.5 282H336.5" stroke="#6E87B0" stroke-width="1.5" stroke-linecap="round"/>
<path d="M351.833 284.5L351.373 291.399C351.196 294.054 351.108 295.381 350.243 296.191C349.378 297 348.047 297 345.387 297H344.613C341.952 297 340.622 297 339.757 296.191C338.892 295.381 338.803 294.054 338.626 291.399L338.167 284.5" stroke="#6E87B0" stroke-width="1.5" stroke-linecap="round"/>
<path d="M342.5 287L343 292" stroke="#6E87B0" stroke-width="1.5" stroke-linecap="round"/>
<path d="M347.5 287L347 292" stroke="#6E87B0" stroke-width="1.5" stroke-linecap="round"/>
<path d="M339.5 282C339.556 282 339.584 282 339.609 281.999C340.433 281.978 341.159 281.455 341.439 280.68C341.448 280.656 341.457 280.63 341.474 280.577L341.571 280.286C341.654 280.037 341.696 279.913 341.751 279.807C341.97 279.386 342.376 279.094 342.845 279.019C342.962 279 343.093 279 343.355 279H346.645C346.907 279 347.038 279 347.155 279.019C347.624 279.094 348.03 279.386 348.249 279.807C348.304 279.913 348.346 280.037 348.429 280.286L348.526 280.577C348.543 280.63 348.552 280.657 348.561 280.68C348.841 281.455 349.567 281.978 350.391 281.999C350.416 282 350.444 282 350.5 282" stroke="#6E87B0" stroke-width="1.5"/>
<defs>
<filter id="filter0_d_4773_7774" x="0" y="0" width="367" height="313" filterUnits="userSpaceOnUse" color-interpolation-filters="sRGB">
<feFlood flood-opacity="0" result="BackgroundImageFix"/>
<feColorMatrix in="SourceAlpha" type="matrix" values="0 0 0 0 0 0 0 0 0 0 0 0 0 0 0 0 0 0 127 0" result="hardAlpha"/>
<feOffset dy="3"/>
<feComposite in2="hardAlpha" operator="out"/>
<feColorMatrix type="matrix" values="0 0 0 0 0.837329 0 0 0 0 0.85465 0 0 0 0 0.88187 0 0 0 1 0"/>
<feBlend mode="normal" in2="BackgroundImageFix" result="effect1_dropShadow_4773_7774"/>
<feBlend mode="normal" in="SourceGraphic" in2="effect1_dropShadow_4773_7774" result="shape"/>
</filter>
<clipPath id="clip0_4773_7774">
<rect width="20" height="20" fill="white" transform="translate(173.5 118)"/>
</clipPath>
</defs>
</svg>
